<?xml version="1.0" standalone="no"?>
<!DOCTYPE svg PUBLIC "-//W3C//DTD SVG 1.1//EN" "http://www.w3.org/Graphics/SVG/1.1/DTD/svg11.dtd" >
<svg xmlns="http://www.w3.org/2000/svg">
<metadata></metadata>
<defs>
<font id="enzo_otmedium" horiz-adv-x="1384" >
<font-face units-per-em="2048" ascent="1696" descent="-352" />
<missing-glyph horiz-adv-x="415" />
<glyph unicode="&#xfb01;" horiz-adv-x="1169" d="M41 907v129h176q-14 86 -14 148q0 311 301 311q63 0 125 -16l-25 -129q-44 12 -86 12q-100 0 -135 -43t-35 -145q0 -77 17 -138h499l152 21v-701q0 -227 33 -356h-146q-39 121 -39 365v542h-491v-907h-152v907h-180zM842 1337q0 88 98 88t98 -88t-98 -88t-98 88z" />
<glyph unicode="&#xfb02;" horiz-adv-x="1169" d="M41 907v129h176q-14 86 -14 148q0 311 301 311q63 0 125 -16l-25 -129q-44 12 -86 12q-100 0 -135 -43t-35 -145q0 -77 17 -138h245l-14 -129h-223v-907h-152v907h-180zM864 365v1085l152 20v-1114q0 -227 33 -356h-146q-39 121 -39 365z" />
<glyph unicode="&#xfb03;" horiz-adv-x="1812" d="M41 907v129h176q-14 86 -14 148q0 311 301 311q63 0 125 -16l-25 -129q-44 12 -86 12q-100 0 -135 -43t-35 -145q0 -77 17 -138h495q-14 86 -14 148q0 311 301 311q63 0 125 -16l-25 -129q-43 12 -86 12q-100 0 -135 -43t-35 -145q0 -77 17 -138h499l152 21v-701 q0 -227 33 -356h-146q-39 121 -39 365v542h-491v-907h-152v907h-491v-907h-152v907h-180zM1485 1337q0 88 98 88t98 -88t-98 -88t-98 88z" />
<glyph unicode="&#xfb04;" horiz-adv-x="1812" d="M41 907v129h176q-14 86 -14 148q0 311 301 311q63 0 125 -16l-25 -129q-44 12 -86 12q-100 0 -135 -43t-35 -145q0 -77 17 -138h495q-14 86 -14 148q0 311 301 311q63 0 125 -16l-25 -129q-43 12 -86 12q-100 0 -135 -43t-35 -145q0 -77 17 -138h245l-14 -129h-223v-907 h-152v907h-491v-907h-152v907h-180zM1507 365v1085l152 20v-1114q0 -227 33 -356h-146q-39 121 -39 365z" />
<glyph horiz-adv-x="0" />
<glyph horiz-adv-x="0" />
<glyph horiz-adv-x="682" />
<glyph unicode="&#xd;" horiz-adv-x="415" />
<glyph unicode=" "  horiz-adv-x="415" />
<glyph unicode="&#x09;" horiz-adv-x="415" />
<glyph unicode="&#xa0;" horiz-adv-x="415" />
<glyph unicode="!" horiz-adv-x="526" d="M172 92q0 103 104 103q105 0 105 -103q0 -102 -105 -102q-104 0 -104 102zM190 1425l172 19q0 -50 -5 -290t-10.5 -496t-6.5 -289h-125q-7 197 -25 1056z" />
<glyph unicode="&#x22;" horiz-adv-x="638" d="M82 1470h154q0 -48 -8 -327.5t-9 -313.5h-121q-2 50 -16 641zM403 1470h154q0 -49 -7.5 -330t-8.5 -311h-121q-5 119 -17 641z" />
<glyph unicode="#" horiz-adv-x="1705" d="M113 348l26 135h289l92 467h-289l29 135h287l63 349h158l-70 -349h453l66 349h155l-65 -349h286l-28 -135h-287l-96 -467h291l-27 -135h-291l-68 -348h-151l70 348h-455l-66 -348h-153l69 348h-288zM578 483h452l94 467h-452z" />
<glyph unicode="$" horiz-adv-x="1150" d="M82 104l57 138q214 -123 451 -123q319 0 319 274q0 26 -5.5 49t-14 41t-25 35t-30.5 29t-38.5 24.5t-42.5 20t-49 18t-50 16t-54.5 15.5t-54.5 16q-51 15 -88 27.5t-84 32.5t-80.5 41.5t-68 53t-55.5 67t-34.5 83.5t-13.5 103q0 182 106.5 279.5t282.5 111.5v217h131 v-217q196 -10 344 -82l-53 -139q-159 80 -348 80q-305 0 -305 -246q0 -25 3.5 -46.5t13.5 -40.5t19 -34t27.5 -29.5t31.5 -24.5t39 -21.5t41 -18.5t47.5 -17.5t48.5 -15.5t52 -16q175 -53 247 -88q184 -91 214 -254q6 -34 6 -72q0 -195 -114 -299t-314 -115v-217h-131v220 q-258 16 -428 124z" />
<glyph unicode="%" horiz-adv-x="2043" d="M113 995q0 239 90 351t293 112t293 -112t90 -351t-90 -351t-293 -112t-293 112t-90 351zM244 995q0 -71 5.5 -121.5t21.5 -96.5t43.5 -74t73 -44t108.5 -16t108.5 16t73 44t43.5 74t21.5 96.5t5.5 121.5t-5.5 121.5t-21.5 97t-43.5 74t-73 44t-108.5 16.5t-108.5 -16.5 t-73 -44t-43.5 -74t-21.5 -97t-5.5 -121.5zM659 18l611 1434l106 -37l-610 -1433zM1165 438q0 239 90 351t293 112t293 -112t90 -351t-90 -351t-293 -112t-293 112t-90 351zM1296 438q0 -71 5.5 -121.5t21.5 -96.5t43.5 -74t73 -44t108.5 -16t108.5 16t73 44t43.5 74 t21.5 96.5t5.5 121.5t-5.5 121.5t-21.5 97t-43.5 74t-73 44t-108.5 16.5t-108.5 -16.5t-73 -44t-43.5 -74t-21.5 -97t-5.5 -121.5z" />
<glyph unicode="&#x26;" d="M117 387q0 83 27 149t71.5 107t96.5 63.5t108 28.5q-110 18 -177 98.5t-67 213.5q0 302 291 383l49 -134q-184 -59 -184 -264q0 -63 21 -109t51 -70t76.5 -38t83.5 -17t87 -3h283v327l158 21v-342l227 -21v-125h-227v-655h-500q-239 0 -357 91.5t-118 295.5zM283 403 q0 -53 10 -92.5t26.5 -67.5t48 -47t64.5 -30.5t87 -17.5t103.5 -7.5t125.5 -1.5h186v516h-301q-60 0 -107 -5t-94.5 -21t-78.5 -43t-50.5 -73.5t-19.5 -109.5z" />
<glyph unicode="'" horiz-adv-x="317" d="M82 1470h154q0 -48 -8 -327.5t-9 -313.5h-121q-2 50 -16 641z" />
<glyph unicode="(" horiz-adv-x="589" d="M82 592q0 475 299 899l113 -68q-137 -189 -202 -385t-65 -446q0 -251 65 -447t202 -385l-113 -67q-299 424 -299 899z" />
<glyph unicode=")" horiz-adv-x="589" d="M96 -240q136 189 201 385t65 447t-65 446.5t-201 384.5l113 68q299 -424 299 -899t-299 -899z" />
<glyph unicode="*" horiz-adv-x="989" d="M84 1090l41 120l315 -110q-1 34 -8 334h129q-1 -41 -5 -161t-5 -173l313 110l41 -120l-321 -97l200 -264l-100 -76l-190 277l-191 -275l-102 74l202 266z" />
<glyph unicode="+" horiz-adv-x="1392" d="M205 522v148h416v420h151v-420h416v-148h-416v-420h-151v420h-416z" />
<glyph unicode="," horiz-adv-x="454" d="M74 -287l137 658l170 10l-193 -668h-114z" />
<glyph unicode="-" horiz-adv-x="907" d="M135 522v148h637v-148h-637z" />
<glyph unicode="." horiz-adv-x="475" d="M133 94q0 107 105 107q104 0 104 -107q0 -106 -104 -106q-105 0 -105 106z" />
<glyph unicode="/" horiz-adv-x="647" d="M74 14l364 1434l135 -29l-364 -1433z" />
<glyph unicode="0" horiz-adv-x="1286" d="M117 717q0 384 123.5 562.5t402.5 178.5t402.5 -178.5t123.5 -562.5q0 -385 -123.5 -563.5t-402.5 -178.5t-402.5 178.5t-123.5 563.5zM276 717q0 -121 8 -206.5t31 -164t63.5 -125.5t106.5 -74.5t158 -27.5t158 27.5t106.5 74.5t63.5 125.5t31 164t8 206.5t-8 206.5 t-31 164t-63.5 125.5t-106.5 74.5t-158 27.5t-158 -27.5t-106.5 -74.5t-63.5 -125.5t-31 -164t-8 -206.5z" />
<glyph unicode="1" horiz-adv-x="485" d="M164 0v1411l158 23v-1434h-158z" />
<glyph unicode="2" horiz-adv-x="1112" d="M98 1354q102 60 208.5 82t248.5 22q215 0 332 -112t117 -299q0 -126 -43.5 -242.5t-132.5 -228t-208.5 -215.5t-285.5 -218h663v-143h-856l-30 143q135 92 233 166t196.5 164t160 172t99.5 177.5t38 191.5q0 160 -80.5 230.5t-239.5 70.5q-201 0 -364 -94z" />
<glyph unicode="3" horiz-adv-x="1144" d="M78 90l63 135q172 -106 410 -106q164 0 253 75.5t89 251.5q0 138 -90 202.5t-244 64.5q-28 0 -86 -4l-111 -11l-43 146l474 446h-680v144h850l34 -144l-503 -452q58 4 84 4q123 0 216 -31t149 -87t84 -129.5t28 -162.5q0 -94 -27 -173.5t-83.5 -144.5t-154.5 -102 t-229 -37q-302 0 -483 115z" />
<glyph unicode="4" horiz-adv-x="1392" d="M135 526q70 110 116 219t71.5 229t36.5 220t20 248l168 -19q-60 -580 -250 -897h561v566l158 22v-588h268v-137h-268v-389h-158v389h-676z" />
<glyph unicode="5" horiz-adv-x="1138" d="M80 90l61 135q176 -106 412 -106q166 0 255 75t89 252q0 287 -336 287q-156 0 -356 -63l-74 141l68 623h741v-144h-610l-54 -463q146 47 293 47q78 0 147 -14t133 -47t110 -82.5t73 -126t27 -172.5q0 -75 -16 -140t-53 -124t-93 -101.5t-141 -67t-193 -24.5 q-302 0 -483 115z" />
<glyph unicode="6" horiz-adv-x="1218" d="M106 717q0 374 133 557.5t384 183.5q259 0 397 -84l-62 -135q-140 76 -311 76q-202 0 -290 -132.5t-93 -400.5q73 90 173 133t243 43q203 0 325.5 -126t122.5 -347q0 -110 -27.5 -200t-84.5 -160.5t-154 -110t-227 -39.5q-281 0 -405 179t-124 563zM270 608 q3 -259 88 -374t277 -115q176 0 258 100t82 279q0 163 -88 242t-232 79q-127 0 -226 -52.5t-159 -158.5z" />
<glyph unicode="7" horiz-adv-x="1040" d="M84 1290v144h856l29 -144q-110 -89 -193 -204.5t-133.5 -235t-83 -267t-45.5 -282.5t-18 -301h-170q10 206 36 375t77.5 336.5t139.5 313t212 265.5h-707z" />
<glyph unicode="8" horiz-adv-x="1220" d="M104 403q0 119 63 213t191 127q-219 63 -219 322q0 80 28.5 149.5t85 124.5t149 87t210.5 32q119 0 212 -33.5t149 -90.5t85 -128t29 -151q0 -256 -227 -342q121 -36 187.5 -119.5t66.5 -208.5q0 -186 -127 -298t-375 -112q-132 0 -231.5 33.5t-159 92.5t-88.5 135 t-29 167zM262 412q0 -295 350 -295q175 0 259.5 69t84.5 191q0 56 -25.5 98.5t-53 67.5t-101 50t-110.5 33.5t-142 30.5q-5 1 -8 2l-41 9q-213 -63 -213 -256zM297 1065q0 -38 7.5 -69.5t24.5 -56t34.5 -43t48.5 -34t54 -25.5t63 -20t64.5 -15.5t70 -14t67.5 -13.5 q108 42 153.5 107t45.5 157q0 132 -77 205.5t-241 73.5q-315 0 -315 -252z" />
<glyph unicode="9" horiz-adv-x="1218" d="M90 948q0 110 28 200t85 160.5t154 110t227 39.5q281 0 404.5 -178t123.5 -563q0 -374 -132.5 -558t-383.5 -184q-259 0 -397 84l61 136q140 -76 311 -76q202 0 290 132t93 400q-73 -90 -172.5 -133t-242.5 -43q-203 0 -326 126t-123 347zM244 936q0 -164 87.5 -243 t231.5 -79q127 0 226 52.5t159 158.5q-3 260 -87.5 375t-276.5 115q-176 0 -258 -100t-82 -279z" />
<glyph unicode=":" horiz-adv-x="475" d="M133 94q0 107 105 107q104 0 104 -107q0 -106 -104 -106q-105 0 -105 106zM133 760q0 106 105 106q104 0 104 -106q0 -107 -104 -107q-105 0 -105 107z" />
<glyph unicode=";" horiz-adv-x="530" d="M72 -287l137 658l170 10l-193 -668h-114zM184 760q0 106 105 106q104 0 104 -106q0 -107 -104 -107q-105 0 -105 107z" />
<glyph unicode="&#x3c;" horiz-adv-x="1392" d="M205 528v136l909 434l74 -148l-832 -354l832 -354l-74 -146z" />
<glyph unicode="=" horiz-adv-x="1392" d="M205 315v144h983v-144h-983zM205 733v144h983v-144h-983z" />
<glyph unicode="&#x3e;" horiz-adv-x="1392" d="M205 242l829 354l-829 354l74 146l909 -432v-136l-909 -434z" />
<glyph unicode="?" horiz-adv-x="946" d="M139 1323l17 131q41 4 116 4q143 0 258 -35.5t188 -96.5t111.5 -141t38.5 -171q0 -166 -90.5 -268t-302.5 -130q0 -15 -2 -107t-4 -140h-127q0 3 -5 144t-5 200q199 20 284.5 85.5t85.5 188.5q0 179 -117 259.5t-366 80.5q-26 0 -80 -4zM299 92q0 103 104 103 q105 0 105 -103q0 -102 -105 -102q-104 0 -104 102z" />
<glyph unicode="@" horiz-adv-x="1855" d="M113 475q0 218 44.5 387t123.5 280.5t196 183t253 102t304 30.5q352 0 530.5 -174t178.5 -485q0 -327 -146 -506t-434 -207l-16 158q-55 -83 -134.5 -126.5t-205.5 -43.5q-155 0 -234 107t-79 290q0 114 14 206t38 157t59.5 114t75 78t89 47t96 24.5t101.5 6.5 q192 0 376 -74l-81 -661l6 -170q348 105 348 587q0 139 -30.5 239.5t-99.5 173t-183.5 108.5t-278.5 36q-122 0 -222.5 -18t-190.5 -58t-157 -107t-115.5 -160.5t-73.5 -223t-25 -291.5q0 -363 133.5 -523.5t445.5 -160.5q277 0 490 133l49 -104q-225 -141 -549 -141 q-343 0 -519.5 188t-176.5 598zM627 483q0 -150 46 -223.5t167 -73.5q58 0 102 13t79 42.5t60.5 62t57.5 85.5l65 557q-105 43 -243 43q-59 0 -105.5 -12t-91 -45.5t-73.5 -88.5t-46.5 -146t-17.5 -214z" />
<glyph unicode="A" horiz-adv-x="1191" d="M41 0l473 1425l160 19l477 -1434l-172 -20l-109 346h-557l-102 -336h-170zM356 473h473l-237 768z" />
<glyph unicode="B" horiz-adv-x="1179" d="M141 0v1411q216 47 389 47q86 0 159.5 -11.5t143 -40.5t118 -74t77.5 -118t29 -167q0 -133 -67 -213.5t-177 -98.5q56 -6 108 -28.5t96.5 -63.5t71.5 -107t27 -149q0 -204 -118 -295.5t-357 -91.5h-500zM299 139h186q76 0 125.5 1.5t103.5 7.5t87 17.5t64.5 30.5t48 47 t26.5 67.5t10 92.5q0 63 -19.5 109.5t-50.5 73.5t-78.5 43t-94.5 21t-107 5h-301v-516zM299 795h283q50 0 87 3t83.5 17t76.5 38t51 70t21 109q0 83 -29 141t-82 89t-115.5 44t-142.5 13q-98 0 -233 -27v-497z" />
<glyph unicode="C" horiz-adv-x="1148" d="M113 717q0 168 27 296t75 211.5t119.5 136.5t154 75t185.5 22q266 0 403 -92l-63 -133q-140 82 -332 82q-67 0 -118 -9.5t-99 -33.5t-82 -68t-60 -109t-38.5 -159.5t-12.5 -218.5t12.5 -218.5t38.5 -159.5t60 -109t82 -68t99 -33.5t118 -9.5q192 0 332 82l63 -133 q-138 -93 -403 -93q-103 0 -185.5 22t-154 75t-119.5 137t-75 212t-27 296z" />
<glyph unicode="D" horiz-adv-x="1331" d="M143 0v1409q280 49 480 49q109 0 194.5 -18.5t164 -68t129.5 -131.5t81.5 -214t30.5 -309q0 -199 -35 -336.5t-110 -222t-184.5 -121.5t-266.5 -37h-484zM301 143h326q119 0 197 25t134 89.5t80.5 176t24.5 283.5q0 146 -21 252.5t-56.5 172.5t-91.5 105t-118 53.5 t-145 14.5q-159 0 -330 -29v-1143z" />
<glyph unicode="E" horiz-adv-x="1083" d="M143 0v1434h828v-144h-670v-454h549l-14 -144h-535v-549h670v-143h-828z" />
<glyph unicode="F" horiz-adv-x="1021" d="M143 0v1434h828v-144h-670v-502h549l-14 -143h-535v-645h-158z" />
<glyph unicode="G" horiz-adv-x="1325" d="M113 717q0 158 31.5 284.5t86.5 210.5t132.5 140.5t165.5 81t190 24.5q127 0 229.5 -18t200.5 -70l-66 -133q-152 78 -364 78q-106 0 -186.5 -32t-140 -101.5t-90 -186t-30.5 -278.5q0 -231 43 -359.5t137.5 -183.5t264.5 -55q211 0 338 65v389h-367v144h524v-627 q-205 -115 -499 -115q-120 0 -211 22t-166 74t-123 136.5t-74 211.5t-26 298z" />
<glyph unicode="H" horiz-adv-x="1271" d="M143 0v1434h158v-605h670v605h157v-1434h-157v686h-670v-686h-158z" />
<glyph unicode="I" horiz-adv-x="444" d="M143 0v1434h158v-1434h-158z" />
<glyph unicode="J" horiz-adv-x="507" d="M41 -233q95 68 130.5 145.5t35.5 206.5v1315h158v-1309q0 -332 -234 -467z" />
<glyph unicode="K" horiz-adv-x="1124" d="M143 0v1434h158v-674l602 688l141 -66l-573 -645l621 -680l-148 -77l-643 727v-707h-158z" />
<glyph unicode="L" horiz-adv-x="1058" d="M141 0v1434h158v-1291h692v-143h-850z" />
<glyph unicode="M" horiz-adv-x="1624" d="M109 0l112 1434h199l397 -1205l383 1205h205l111 -1430l-162 -12l-78 1196l-387 -1188h-150l-399 1188l-70 -1188h-161z" />
<glyph unicode="N" horiz-adv-x="1306" d="M143 0v1411l174 35l703 -1184v1172h143v-1434h-170l-706 1190v-1190h-144z" />
<glyph unicode="O" d="M113 717q0 385 135.5 563t443.5 178t444 -178.5t136 -562.5q0 -385 -136 -563.5t-444 -178.5t-443.5 178.5t-135.5 563.5zM272 717q0 -100 6.5 -174.5t23 -145.5t46.5 -119.5t76 -86t113 -55t155 -17.5t155 17.5t113 55t76 86t46.5 119.5t23 145.5t6.5 174.5t-6.5 174.5 t-23 145.5t-46.5 119.5t-76 86t-113 55t-155 17.5t-155 -17.5t-113 -55t-76 -86t-46.5 -119.5t-23 -145.5t-6.5 -174.5z" />
<glyph unicode="P" horiz-adv-x="1155" d="M143 0v1411q196 47 381 47q106 0 193 -15.5t162 -52t126 -93t80 -143t29 -198.5q0 -104 -30.5 -186.5t-82.5 -136t-125.5 -88.5t-155.5 -49.5t-177 -14.5q-102 0 -242 21v-502h-158zM301 639q105 -18 217 -18q106 0 182 15t135.5 51t89 102t29.5 163q0 104 -30.5 176.5 t-88.5 112.5t-130 57t-166 17q-127 0 -238 -27v-649z" />
<glyph unicode="Q" d="M113 717q0 385 135.5 563t443.5 178t444 -178.5t136 -562.5q0 -339 -108 -519t-343 -212q37 -59 98 -120t130 -106l-150 -73q-136 114 -223 288q-296 3 -429.5 182.5t-133.5 559.5zM272 717q0 -100 6.5 -174.5t23 -145.5t46.5 -119.5t76 -86t113 -55t155 -17.5t155 17.5 t113 55t76 86t46.5 119.5t23 145.5t6.5 174.5t-6.5 174.5t-23 145.5t-46.5 119.5t-76 86t-113 55t-155 17.5t-155 -17.5t-113 -55t-76 -86t-46.5 -119.5t-23 -145.5t-6.5 -174.5z" />
<glyph unicode="R" horiz-adv-x="1187" d="M141 0v1411q199 47 391 47q558 0 558 -487q0 -171 -77.5 -269.5t-211.5 -134.5l327 -547l-167 -38l-306 542h-356v-524h-158zM299 668h326q140 0 222.5 79.5t82.5 229.5q0 183 -101 260.5t-288 77.5q-108 0 -242 -31v-616z" />
<glyph unicode="S" horiz-adv-x="1150" d="M82 104l57 138q203 -123 451 -123q319 0 319 274q0 26 -5.5 49t-14 41t-25 35t-30.5 29t-38.5 24.5t-42.5 20t-49 18t-50 16t-54.5 15.5t-54.5 16q-51 15 -88 27.5t-84 32.5t-80.5 41.5t-68 53t-55.5 67t-34.5 83.5t-13.5 103q0 101 35 177.5t97 123t142 69.5t176 23 q245 0 414 -84l-53 -139q-153 80 -348 80q-305 0 -305 -246q0 -25 3.5 -46.5t13.5 -40.5t19 -34t27.5 -29.5t31.5 -24.5t39 -21.5t41 -18.5t47.5 -17.5t48.5 -15.5t52 -16q175 -53 247 -88q184 -91 214 -254q6 -34 6 -72q0 -207 -127 -311.5t-348 -104.5q-308 0 -512 129z " />
<glyph unicode="T" horiz-adv-x="1153" d="M78 1290v144h997v-144h-420v-1290h-157v1290h-420z" />
<glyph unicode="U" horiz-adv-x="1343" d="M133 717v717h158v-717q0 -316 84.5 -457t298.5 -141q109 0 182.5 35t117 111.5t61.5 185t18 266.5v717h157v-717q0 -384 -127 -563t-411 -179q-287 0 -413 178.5t-126 563.5z" />
<glyph unicode="V" horiz-adv-x="1187" d="M43 1417l168 33l389 -1255l385 1255l160 -35l-469 -1415h-160z" />
<glyph unicode="W" horiz-adv-x="1748" d="M43 1419l170 31l299 -1251l283 1222l172 25l293 -1247l282 1251l164 -33l-360 -1417h-175l-288 1196l-283 -1196h-180z" />
<glyph unicode="X" horiz-adv-x="1220" d="M43 0l469 752l-428 657l170 43l354 -584l336 566h180l-428 -686l482 -721l-166 -52l-410 650l-375 -625h-184z" />
<glyph unicode="Y" horiz-adv-x="1175" d="M47 1413l168 39l369 -772l368 754h176l-466 -906v-528h-158v528z" />
<glyph unicode="Z" horiz-adv-x="1126" d="M84 143l731 1147h-709v144h863l35 -140l-734 -1151h772l-16 -143h-901z" />
<glyph unicode="[" horiz-adv-x="653" d="M139 -287v1757h402v-133h-258v-1491h258v-133h-402z" />
<glyph unicode="\" horiz-adv-x="643" d="M74 1417l133 33l362 -1434l-133 -32z" />
<glyph unicode="]" horiz-adv-x="653" d="M113 -154h258v1491h-258v133h401v-1757h-401v133z" />
<glyph unicode="^" horiz-adv-x="911" d="M72 782l319 688h125l322 -688l-125 -51l-258 598l-258 -598z" />
<glyph unicode="_" horiz-adv-x="1024" d="M-4 -221h1032v-94h-1032v94z" />
<glyph unicode="`" horiz-adv-x="454" d="M74 1561l164 12l143 -350l-113 -13z" />
<glyph unicode="a" horiz-adv-x="1079" d="M102 287q0 107 62 173t212.5 105.5t409.5 50.5v25q0 305 -266 305q-158 0 -295 -67l-49 122q151 80 344 80q70 0 130.5 -14t114 -46t91.5 -80t60 -120.5t22 -163.5v-274q0 -223 37 -367l-127 -28q-29 81 -43 157q-96 -170 -344 -170q-186 0 -272.5 72t-86.5 240zM252 287 q0 -101 48.5 -144t188.5 -43q109 0 175.5 52.5t121.5 162.5v177q-183 -8 -297 -29.5t-175.5 -64.5t-61.5 -111z" />
<glyph unicode="b" horiz-adv-x="1099" d="M143 41v1409l152 20v-542q89 153 321 153q197 0 289 -137t92 -416q0 -130 -23 -228.5t-61.5 -159.5t-96.5 -98.5t-120 -52t-139 -14.5q-243 0 -414 66zM295 141q90 -37 268 -37q69 0 118 19t87 65t57 130.5t19 209.5q0 83 -6.5 145.5t-23 117.5t-44.5 89.5t-72.5 54 t-105.5 19.5q-109 0 -175.5 -52t-121.5 -161v-600z" />
<glyph unicode="c" horiz-adv-x="903" d="M102 528q0 286 109 419.5t340 133.5q167 0 283 -65l-58 -119q-95 49 -225 49q-162 0 -228.5 -91.5t-66.5 -326.5t66.5 -326t228.5 -91q130 0 225 49l58 -119q-118 -66 -283 -66q-231 0 -340 133.5t-109 419.5z" />
<glyph unicode="d" horiz-adv-x="1097" d="M102 528q0 134 25 234.5t64.5 160t97.5 96t115.5 49.5t127.5 13q160 0 279 -61q-6 70 -6 213v217l151 20v-1087q0 -223 37 -367l-127 -28q-29 81 -43 157q-96 -170 -340 -170q-197 0 -289 137t-92 416zM256 528q0 -83 6.5 -145.5t23 -117.5t44.5 -89.5t72.5 -54 t105.5 -19.5q109 0 175.5 52t121.5 161v576q-113 63 -258 63q-58 0 -100.5 -11t-80 -39.5t-61 -76t-36.5 -122.5t-13 -177z" />
<glyph unicode="e" horiz-adv-x="1058" d="M102 528q0 133 24.5 233t64 160t98.5 97t119.5 50t134.5 13q104 0 178.5 -27t130.5 -91.5t83.5 -178.5t27.5 -280v-19l-705 -57q4 -178 80 -251t225 -73q161 0 299 82l56 -116q-144 -95 -355 -95q-73 0 -131.5 10.5t-111.5 35t-92 66.5t-68 102.5t-43.5 145.5t-14.5 193z M254 547l559 53q-3 191 -71 271.5t-199 80.5q-141 0 -215 -89t-74 -294v-22z" />
<glyph unicode="f" horiz-adv-x="657" d="M41 907v129h176q-14 86 -14 148q0 311 301 311q63 0 125 -16l-25 -129q-44 12 -86 12q-100 0 -135 -43t-35 -145q0 -77 17 -138h245l-14 -129h-223v-907h-152v907h-180z" />
<glyph unicode="g" horiz-adv-x="1099" d="M102 543q0 106 15.5 190.5t45.5 142.5t68.5 98.5t90 63.5t104.5 33t117 10q245 0 413 -65v-942q0 -211 -105.5 -312.5t-299.5 -101.5q-175 0 -295 55l41 125q109 -53 256 -53q125 0 188.5 67t63.5 228v70q-86 -148 -322 -148q-197 0 -289 133.5t-92 405.5zM256 543 q0 -80 6.5 -140t23 -113t44.5 -86t72.5 -52t105.5 -19q109 0 175.5 50t121.5 155v577q-90 37 -268 37q-69 0 -118 -18t-87 -63t-57 -126.5t-19 -201.5z" />
<glyph unicode="h" horiz-adv-x="1101" d="M141 0v1450l152 20v-542q89 153 325 153q89 0 154 -26.5t103.5 -68.5t61.5 -106.5t30.5 -128t7.5 -145.5v-606h-152v578q0 50 -1 83t-4.5 73t-10 65t-18 53t-29 44.5t-41 31t-56 20.5t-73.5 6q-109 0 -175.5 -52t-121.5 -161v-741h-152z" />
<glyph unicode="i" horiz-adv-x="458" d="M131 1337q0 88 98 88q99 0 99 -88t-99 -88q-98 0 -98 88zM154 365v671l151 21v-701q0 -227 33 -356h-145q-39 121 -39 365z" />
<glyph unicode="j" horiz-adv-x="466" d="M10 -242q66 47 97.5 88t44 97.5t12.5 156.5v936l151 21v-951q0 -184 -48.5 -280.5t-172.5 -171.5zM141 1337q0 88 99 88q98 0 98 -88t-98 -88q-99 0 -99 88z" />
<glyph unicode="k" horiz-adv-x="956" d="M143 0v1450l152 20v-874l450 473l138 -63l-420 -428l455 -523l-140 -75l-483 579v-559h-152z" />
<glyph unicode="l" horiz-adv-x="458" d="M154 365v1085l151 20v-1114q0 -227 33 -356h-145q-39 121 -39 365z" />
<glyph unicode="m" horiz-adv-x="1746" d="M104 1040l127 29q28 -80 43 -158q93 170 336 170q226 0 303 -182q57 94 144 138t217 44q86 0 149.5 -26.5t100.5 -68.5t59.5 -106.5t29.5 -128t7 -145.5v-606h-152v578q0 50 -1 83t-4 72.5t-10 65t-17.5 53.5t-27.5 44.5t-40 31t-54.5 20.5t-70.5 6q-105 0 -169.5 -52 t-117.5 -161v-741h-151v690q0 48 -5 84.5t-20 71.5t-39.5 58t-65 36.5t-95.5 13.5q-105 0 -169.5 -52t-117.5 -161v-741h-152v674q0 222 -37 366z" />
<glyph unicode="n" horiz-adv-x="1101" d="M104 1040l127 29q28 -80 43 -158q96 170 344 170q89 0 154 -26.5t103.5 -68.5t61.5 -106.5t30.5 -128t7.5 -145.5v-606h-152v578q0 50 -1 83t-4.5 73t-10 65t-18 53t-29 44.5t-41 31t-56 20.5t-73.5 6q-109 0 -175.5 -52t-121.5 -161v-741h-152v674q0 222 -37 366z" />
<glyph unicode="o" horiz-adv-x="1126" d="M102 528q0 286 108 419.5t353 133.5t353 -133.5t108 -419.5t-108 -419.5t-353 -133.5t-353 133.5t-108 419.5zM256 528q0 -86 6.5 -146.5t26 -116t53 -89t89 -53t132.5 -19.5t132.5 19.5t89 53t53 89t26 116t6.5 146.5t-6.5 146.5t-26 116t-53 89t-89 53t-132.5 19.5 t-132.5 -19.5t-89 -53t-53 -89t-26 -116t-6.5 -146.5z" />
<glyph unicode="p" horiz-adv-x="1097" d="M104 1040l127 29q28 -80 43 -158q96 170 340 170q197 0 289 -137t92 -416q0 -134 -25 -234.5t-64.5 -160t-97.5 -96t-115.5 -49.5t-127.5 -13q-157 0 -278 62q6 -70 6 -201v-151h-152v989q0 222 -37 366zM293 166q114 -64 258 -64q58 0 100.5 11t80 39.5t61 76 t36.5 122.5t13 177q0 83 -6.5 145.5t-23 117.5t-44.5 89.5t-72.5 54t-105.5 19.5q-109 0 -175.5 -52t-121.5 -161v-575z" />
<glyph unicode="q" horiz-adv-x="1099" d="M102 528q0 130 23 228.5t62 159.5t97 98.5t120 52t139 14.5q245 0 413 -65v-1311l-151 -20v444q-89 -154 -322 -154q-197 0 -289 137t-92 416zM256 528q0 -83 6.5 -145.5t23 -117.5t44.5 -89.5t72.5 -54t105.5 -19.5q109 0 175.5 52t121.5 161v600q-90 37 -268 37 q-69 0 -118 -19t-87 -65t-57 -130.5t-19 -209.5z" />
<glyph unicode="r" horiz-adv-x="663" d="M104 1040l127 29q32 -89 50 -182q44 89 120 137t197 57l20 -163q-125 -1 -202.5 -56t-122.5 -170v-692h-152v674q0 222 -37 366z" />
<glyph unicode="s" horiz-adv-x="909" d="M82 68l49 120q143 -82 336 -82q111 0 167 36.5t56 127.5q0 25 -5 45t-12 34.5t-24.5 28t-31 21.5t-44.5 19t-51.5 17.5t-64.5 19.5q-46 13 -75.5 22t-69.5 25.5t-65.5 33t-53.5 42t-43.5 55.5t-26 71.5t-10.5 90.5q0 142 97 214t249 72q196 0 321 -69l-51 -119 q-105 57 -258 57q-103 0 -157 -34t-54 -130q0 -33 13 -60t31.5 -44.5t53.5 -33.5t63.5 -25.5t76.5 -22.5q142 -39 198 -70q137 -74 142 -230v-13q0 -312 -363 -312q-244 0 -393 93z" />
<glyph unicode="t" horiz-adv-x="636" d="M41 928v129h180v321l152 21v-342h235l-14 -129h-221v-465q0 -67 1 -101t8 -82.5t20.5 -80t39 -69.5t64.5 -75l-103 -86q-50 39 -84.5 86.5t-53.5 93t-29 109t-12.5 115.5t-2.5 133v422h-180z" />
<glyph unicode="u" horiz-adv-x="1101" d="M127 451v585l152 21v-578q0 -58 1.5 -94.5t6.5 -80.5t14.5 -71t26 -54.5t41.5 -42.5t60.5 -24.5t82.5 -9.5q109 0 175.5 52t121.5 161v721l152 21v-674q0 -227 36 -367l-127 -28q-29 81 -43 157q-96 -170 -344 -170q-89 0 -154 26.5t-103 69t-61 107t-30.5 128 t-7.5 145.5z" />
<glyph unicode="v" horiz-adv-x="950" d="M41 1038l162 31l278 -930l281 930l147 -31l-346 -1038h-172z" />
<glyph unicode="w" horiz-adv-x="1556" d="M41 1040l158 29l260 -922l252 900l155 18l246 -918l252 922l152 -25l-310 -1044h-178l-237 868l-252 -868h-179z" />
<glyph unicode="x" horiz-adv-x="976" d="M45 0l348 549l-321 483l166 43l249 -420l234 402h172l-318 -500l357 -524l-156 -56l-293 465l-272 -442h-166z" />
<glyph unicode="y" horiz-adv-x="950" d="M41 1038l162 31l278 -924l281 924l147 -29l-313 -929q-38 -113 -82 -195t-116.5 -153t-168.5 -109l-65 106q106 54 157 113.5t70 144.5z" />
<glyph unicode="z" horiz-adv-x="950" d="M72 129l594 799h-564v129h725l25 -129l-590 -799h617l-13 -129h-768z" />
<glyph unicode="{" horiz-adv-x="731" d="M51 662q47 4 80.5 18.5t54.5 48t33 65t17.5 95.5t6.5 111t1 139q0 104 24.5 172t75 103.5t112.5 49t152 13.5v-131q-57 0 -90 -4t-63 -18t-44 -42.5t-22 -73.5t-8 -116q0 -236 -35 -350t-135 -146q100 -32 135 -147.5t35 -354.5q0 -58 4.5 -97.5t16.5 -68t27.5 -44.5 t43.5 -25.5t58 -12t77 -2.5v-131q-65 0 -114 6.5t-98 27t-80 56t-50.5 96t-19.5 144.5q0 268 -37 375t-148 114z" />
<glyph unicode="|" horiz-adv-x="550" d="M205 -287v1913h141v-1913h-141z" />
<glyph unicode="}" horiz-adv-x="731" d="M123 -156q47 0 77 2.5t58 12t43.5 25.5t27.5 44.5t16.5 68t4.5 97.5q0 239 35 354.5t135 147.5q-100 32 -135 146t-35 350q0 71 -8 116t-22 73.5t-44 42.5t-63 18t-90 4v131q90 0 152 -13.5t112.5 -49t75 -103.5t24.5 -172q0 -92 1 -139t6.5 -111t17.5 -95.5t33 -65 t54.5 -48t80.5 -18.5l-10 -130q-111 -7 -148 -114t-37 -375q0 -84 -19.5 -144.5t-50.5 -96t-80 -56t-98 -27t-114 -6.5v131z" />
<glyph unicode="~" horiz-adv-x="1128" d="M135 582q107 137 277 137q43 0 88 -18t77 -39.5t73 -39.5t75 -18q101 0 188 101l80 -93q-107 -137 -276 -137q-43 0 -88 18t-77.5 39.5t-73.5 39.5t-75 18q-101 0 -188 -101z" />
<glyph unicode="&#xa1;" horiz-adv-x="526" d="M166 979q0 102 104 102q105 0 105 -102t-105 -102q-104 0 -104 102zM184 -373q0 68 11.5 570t11.5 505h125q5 -132 24 -1056z" />
<glyph unicode="&#xa2;" horiz-adv-x="903" d="M102 528q0 255 86.5 388t268.5 159v211h125v-205q148 -6 252 -65l-58 -119q-95 49 -225 49q-162 0 -228.5 -91.5t-66.5 -326.5t66.5 -326t228.5 -91q130 0 225 49l58 -119q-106 -60 -252 -66v-204h-125v211q-182 25 -268.5 157.5t-86.5 388.5z" />
<glyph unicode="&#xa3;" horiz-adv-x="1140" d="M80 649v139h172q-41 198 -41 320q0 91 33.5 160.5t92.5 109.5t133 60t161 20q230 0 381 -92l-60 -131q-60 34 -146 57t-167 23q-116 0 -190 -52.5t-74 -168.5q0 -104 37 -306h376v-139h-358q8 -68 8 -149q0 -215 -110 -357h714v-143h-860l-28 143q129 153 129 344 q0 86 -11 162h-192z" />
<glyph unicode="&#xa4;" horiz-adv-x="1304" d="M217 303l141 141q-49 86 -49 201q0 124 51 201l-141 143l90 90l146 -145q86 47 196 47q111 0 197 -47l145 145l92 -92l-141 -141q49 -74 49 -201q0 -129 -49 -203l141 -139l-92 -92l-145 145q-86 -47 -197 -47q-70 0 -114.5 9.5t-83.5 35.5l-144 -143zM432 645 q0 -114 53.5 -169.5t165.5 -55.5t165.5 55.5t53.5 169.5t-53.5 169.5t-165.5 55.5t-165.5 -55.5t-53.5 -169.5z" />
<glyph unicode="&#xa5;" horiz-adv-x="1175" d="M47 1413l168 39l369 -741l368 723h176l-411 -766h264v-115h-319v-143h319v-115h-319v-295h-158v295h-311v115h311v143h-311v115h251z" />
<glyph unicode="&#xa6;" horiz-adv-x="550" d="M205 -287v846h141v-846h-141zM205 780v846h141v-846h-141z" />
<glyph unicode="&#xa7;" horiz-adv-x="1099" d="M88 602q0 208 164 303q-51 28 -76.5 86.5t-25.5 132.5q0 87 33 153t90.5 104.5t127 57.5t150.5 19q229 0 395 -98l-59 -125q-155 86 -322 86q-57 0 -100 -8t-80.5 -28t-57.5 -58t-20 -94q0 -29 9.5 -54t23.5 -43.5t37.5 -35t44 -27.5t51.5 -22.5t52 -18t52 -15.5t46 -14 q51 -16 81 -26.5t76.5 -30t74.5 -37t61.5 -45.5t52 -58.5t31 -72t12.5 -90.5q0 -209 -166 -299q52 -29 78 -89.5t26 -134.5q0 -87 -33 -152.5t-90.5 -103.5t-127.5 -56.5t-152 -18.5q-229 0 -395 98l59 125q155 -86 321 -86q131 0 196 40.5t65 147.5q0 41 -20 75t-49.5 55.5 t-74 41t-81 30t-84 24.5t-70.5 22q-58 21 -98 38.5t-86.5 47t-75 62.5t-47.5 82.5t-19 109.5zM240 633q0 -88 46.5 -130.5t178.5 -92.5q28 -11 120.5 -39.5t139.5 -51.5q58 25 96.5 74t38.5 121q0 41 -16.5 75.5t-40 57.5t-64.5 44.5t-75 34t-86 28.5q-14 4 -52 16l-57 18 t-46.5 17t-47.5 22q-57 -24 -96 -74t-39 -120z" />
<glyph unicode="&#xa8;" horiz-adv-x="800" d="M106 1339q0 43 25 65.5t70 22.5q94 0 94 -88t-94 -88q-45 0 -70 22.5t-25 65.5zM506 1339q0 88 94 88t94 -88t-94 -88t-94 88z" />
<glyph unicode="&#xa9;" horiz-adv-x="1652" d="M113 717q0 361 182.5 551t529.5 190q349 0 532 -190t183 -551q0 -360 -183.5 -551t-531.5 -191q-347 0 -529.5 191t-182.5 551zM225 717q0 -316 151 -475.5t449 -159.5q299 0 450.5 159.5t151.5 475.5t-151.5 475.5t-450.5 159.5q-298 0 -449 -159.5t-151 -475.5z M442 713q0 262 104.5 385t282.5 123q152 0 273 -68l-45 -100q-99 55 -223 55q-142 0 -205.5 -91t-63.5 -304t63.5 -304.5t205.5 -91.5q122 0 223 56l45 -101q-119 -67 -273 -67q-178 0 -282.5 123t-104.5 385z" />
<glyph unicode="&#xaa;" horiz-adv-x="706" d="M96 991q0 105 84.5 148.5t300.5 52.5q0 102 -35.5 140t-109.5 38q-92 0 -160 -39l-39 78q82 49 211 49q102 0 169 -64t67 -188v-145q0 -155 18 -227l-82 -19q-15 35 -26 86q-22 -42 -72.5 -67t-122.5 -25q-203 0 -203 182zM115 653v82h495v-82h-495zM199 993 q0 -53 23.5 -77.5t96.5 -24.5q62 0 97.5 27.5t64.5 85.5v104q-123 -7 -180.5 -18.5t-79.5 -32.5t-22 -64z" />
<glyph unicode="&#xab;" horiz-adv-x="1368" d="M113 518v127l514 373l69 -125l-458 -311l458 -314l-69 -123zM674 518v127l514 373l69 -125l-458 -311l458 -314l-69 -123z" />
<glyph unicode="&#xac;" horiz-adv-x="1392" d="M205 522v148h983v-461h-154v313h-829z" />
<glyph unicode="&#xad;" horiz-adv-x="907" d="M135 522v148h637v-148h-637z" />
<glyph unicode="&#xae;" horiz-adv-x="1652" d="M113 717q0 361 182.5 551t529.5 190q349 0 532 -190t183 -551q0 -360 -183.5 -551t-531.5 -191q-347 0 -529.5 191t-182.5 551zM225 717q0 -316 151 -475.5t449 -159.5q299 0 450.5 159.5t151.5 475.5t-151.5 475.5t-450.5 159.5q-298 0 -449 -159.5t-151 -475.5z M524 238v948q159 37 283 37q66 0 122 -10t108.5 -34t89 -61.5t58 -97t21.5 -135.5q0 -220 -182 -287l203 -315l-119 -52l-205 349h-256v-342h-123zM647 686h236q200 0 200 199q0 120 -73.5 172.5t-192.5 52.5q-78 0 -170 -20v-404z" />
<glyph unicode="&#xaf;" horiz-adv-x="929" d="M82 1214v129h766v-129h-766z" />
<glyph unicode="&#xb0;" horiz-adv-x="819" d="M106 1204q0 140 78 215.5t226 75.5q149 0 226 -75t77 -216t-77 -216t-226 -75q-148 0 -226 75.5t-78 215.5zM213 1204q0 -194 197 -194q196 0 196 194q0 195 -196 195q-197 0 -197 -195z" />
<glyph unicode="&#xb1;" horiz-adv-x="1392" d="M205 0v147h983v-147h-983zM205 659v148h416v381h151v-381h416v-148h-416v-383h-151v383h-416z" />
<glyph unicode="&#xb2;" horiz-adv-x="737" d="M100 1389q95 59 271 59q121 0 188.5 -63.5t67.5 -172.5q0 -131 -85 -242.5t-263 -234.5h346v-110h-494l-22 110q63 43 101 70.5t89.5 68t82 73t61 72.5t44 81t13.5 84q0 84 -36.5 118.5t-123.5 34.5q-109 0 -201 -53z" />
<glyph unicode="&#xb3;" horiz-adv-x="755" d="M88 680l45 102q99 -61 229 -61q170 0 170 156q0 68 -43 98.5t-112 30.5q-42 0 -62 -2l-59 -9l-29 111l246 217h-360v111h489l27 -111l-271 -227q24 4 39 4q135 -1 197.5 -62.5t62.5 -165.5q0 -51 -14.5 -95t-45.5 -83t-90 -61.5t-140 -22.5q-177 0 -279 70z" />
<glyph unicode="&#xb4;" horiz-adv-x="454" d="M74 1223l145 350l162 -12l-195 -351z" />
<glyph unicode="&#xb5;" horiz-adv-x="1118" d="M143 -315v1351l152 21v-578q0 -58 1.5 -94.5t6.5 -80.5t14.5 -71t26 -54.5t41.5 -42.5t60.5 -24.5t82.5 -9.5q109 0 175.5 52t121.5 161v721l152 21v-674q0 -223 37 -367l-127 -28q-29 81 -43 157q-95 -170 -344 -170q-146 0 -205 82v-372h-152z" />
<glyph unicode="&#xb6;" horiz-adv-x="1044" d="M63 1036q0 204 137.5 312t383.5 108q135 0 301 -41v-1415h-129v1303q-55 18 -138 18v-1321h-129v618q-107 0 -190 33t-133.5 91t-76.5 132.5t-26 161.5z" />
<glyph unicode="&#xb7;" horiz-adv-x="475" d="M133 690q0 107 105 107q104 0 104 -107q0 -106 -104 -106q-105 0 -105 106z" />
<glyph unicode="&#xb8;" horiz-adv-x="481" d="M82 -332l29 99q46 -19 98 -19q74 0 74 51q0 28 -32.5 45t-94.5 17l28 139h119l-18 -80q58 -7 86 -40t28 -83q0 -78 -50 -114.5t-132 -36.5q-59 0 -135 22z" />
<glyph unicode="&#xb9;" horiz-adv-x="423" d="M152 625v792l120 17v-809h-120z" />
<glyph unicode="&#xba;" horiz-adv-x="737" d="M96 1135q0 168 64 245.5t209 77.5t208.5 -77.5t63.5 -245.5q0 -169 -63.5 -247.5t-208.5 -78.5t-209 78.5t-64 247.5zM123 653v82h491v-82h-491zM199 1135q0 -124 34 -182t136 -58t136 58t34 182q0 122 -34 179.5t-136 57.5t-136 -57.5t-34 -179.5z" />
<glyph unicode="&#xbb;" horiz-adv-x="1368" d="M111 268l458 314l-458 311l69 125l514 -373v-127l-514 -373zM672 268l458 314l-458 311l69 125l514 -373v-127l-514 -373z" />
<glyph unicode="&#xbc;" horiz-adv-x="1331" d="M152 20l610 1436l96 -39l-610 -1435zM158 625v792l121 17v-809h-121zM633 315q63 104 86.5 220.5t30.5 279.5l131 -12q-31 -318 -127 -490h250v295l120 17v-312h101v-104h-101v-209h-120v209h-338z" />
<glyph unicode="&#xbd;" horiz-adv-x="1329" d="M152 20l610 1436l96 -39l-610 -1435zM158 625v792l121 17v-809h-121zM692 764q95 59 271 59q122 0 189 -63t67 -172q0 -131 -85.5 -242.5t-263.5 -234.5h347v-111h-494l-23 111q77 53 120.5 84.5t103 81.5t91 89.5t54.5 90.5t23 102q0 84 -36.5 119t-123.5 35 q-107 0 -201 -54z" />
<glyph unicode="&#xbe;" horiz-adv-x="1640" d="M88 680l45 102q99 -61 229 -61q170 0 170 156q0 68 -43 98.5t-112 30.5q-42 0 -62 -2l-59 -9l-29 111l246 217h-360v111h489l27 -111l-271 -227q24 4 39 4q135 -1 197.5 -62.5t62.5 -165.5q0 -51 -14.5 -95t-45.5 -83t-90 -61.5t-140 -22.5q-177 0 -279 70zM461 20 l610 1436l96 -39l-610 -1435zM942 315q63 104 86.5 220.5t30.5 279.5l131 -12q-31 -318 -127 -490h250v295l121 17v-312h100v-104h-100v-209h-121v209h-338z" />
<glyph unicode="&#xbf;" horiz-adv-x="946" d="M123 57q0 166 90.5 268t302.5 130q0 15 2 107t4 140h127q0 -3 5 -144t5 -200q-199 -20 -284.5 -85.5t-85.5 -188.5q0 -179 117 -259.5t366 -80.5q26 0 80 4l-16 -131q-41 -4 -117 -4q-143 0 -258 35.5t-188 96.5t-111.5 141t-38.5 171zM483 979q0 102 105 102 q104 0 104 -102t-104 -102q-105 0 -105 102z" />
<glyph unicode="&#xc0;" horiz-adv-x="1191" d="M41 0l473 1425l160 19l477 -1434l-172 -20l-109 346h-557l-102 -336h-170zM356 473h473l-237 768zM371 1901l164 12l143 -350l-113 -13z" />
<glyph unicode="&#xc1;" horiz-adv-x="1191" d="M41 0l473 1425l160 19l477 -1434l-172 -20l-109 346h-557l-102 -336h-170zM356 473h473l-237 768zM504 1563l145 350l162 -12l-195 -351z" />
<glyph unicode="&#xc2;" horiz-adv-x="1191" d="M41 0l473 1425l160 19l477 -1434l-172 -20l-109 346h-557l-102 -336h-170zM221 1602l314 256h116l314 -256l-82 -70l-291 201l-291 -201zM356 473h473l-237 768z" />
<glyph unicode="&#xc3;" horiz-adv-x="1191" d="M41 0l473 1425l160 19l477 -1434l-172 -20l-109 346h-557l-102 -336h-170zM164 1653q107 137 276 137q43 0 88 -18t77.5 -39.5t73.5 -39.5t75 -18q101 0 188 101l80 -93q-107 -137 -277 -137q-43 0 -88 18t-77 39.5t-73 39.5t-75 18q-102 0 -188 -100zM356 473h473 l-237 768z" />
<glyph unicode="&#xc4;" horiz-adv-x="1191" d="M41 0l473 1425l160 19l477 -1434l-172 -20l-109 346h-557l-102 -336h-170zM301 1638q0 88 94 88t94 -88t-94 -88t-94 88zM356 473h473l-237 768zM700 1638q0 43 25 65.5t70 22.5q94 0 94 -88t-94 -88q-45 0 -70 22.5t-25 65.5z" />
<glyph unicode="&#xc5;" horiz-adv-x="1191" d="M41 0l451 1358q-152 40 -152 215q0 110 63.5 168.5t188.5 58.5t188.5 -58.5t63.5 -168.5q0 -167 -144 -211l451 -1352l-172 -20l-109 346h-557l-102 -336h-170zM356 473h473l-237 768zM453 1573q0 -135 139 -135t139 135q0 137 -139 137t-139 -137z" />
<glyph unicode="&#xc6;" horiz-adv-x="1845" d="M41 0l815 1434h885v-144h-670v-454h549l-14 -144h-535v-549h670v-143h-828v336h-501l-187 -336h-184zM483 473h430v770z" />
<glyph unicode="&#xc7;" horiz-adv-x="1148" d="M113 717q0 168 27 296t75 211.5t119.5 136.5t154 75t185.5 22q260 0 403 -96l-63 -125q-143 80 -332 80q-80 0 -139 -14t-112.5 -52.5t-86.5 -104.5t-52.5 -173.5t-19.5 -255.5t19.5 -255.5t52.5 -173.5t86.5 -104.5t112.5 -52.5t139 -14q189 0 332 80l63 -125 q-133 -90 -368 -97l-13 -55q58 -7 86.5 -40t28.5 -83q0 -78 -50 -114.5t-132 -36.5q-59 0 -135 22l28 99q46 -19 99 -19q73 0 73 51q0 28 -32.5 45t-94.5 17l25 119q-89 8 -160.5 36.5t-132 84t-101 138t-63 203.5t-22.5 275z" />
<glyph unicode="&#xc8;" horiz-adv-x="1083" d="M143 0v1434h828v-144h-670v-454h549l-14 -144h-535v-549h670v-143h-828zM334 1903l164 12l143 -350l-113 -13z" />
<glyph unicode="&#xc9;" horiz-adv-x="1083" d="M143 0v1434h828v-144h-670v-454h549l-14 -144h-535v-549h670v-143h-828zM440 1565l146 350l162 -12l-195 -351z" />
<glyph unicode="&#xca;" horiz-adv-x="1083" d="M143 0v1434h828v-144h-670v-454h549l-14 -144h-535v-549h670v-143h-828zM182 1602l314 256h116l314 -256l-82 -70l-291 201l-291 -201z" />
<glyph unicode="&#xcb;" horiz-adv-x="1083" d="M143 0v1434h828v-144h-670v-454h549l-14 -144h-535v-549h670v-143h-828zM266 1638q0 88 94 88q45 0 70 -22.5t25 -65.5t-25 -65.5t-70 -22.5q-94 0 -94 88zM666 1638q0 88 94 88t94 -88t-94 -88t-94 88z" />
<glyph unicode="&#xcc;" horiz-adv-x="444" d="M-8 1901l164 12l143 -350l-113 -13zM143 0v1434h158v-1434h-158z" />
<glyph unicode="&#xcd;" horiz-adv-x="444" d="M135 1563l146 350l161 -12l-194 -351zM143 0v1434h158v-1434h-158z" />
<glyph unicode="&#xce;" horiz-adv-x="444" d="M-150 1610l314 256h117l313 -256l-82 -70l-291 201l-291 -201zM143 0v1434h158v-1434h-158z" />
<glyph unicode="&#xcf;" horiz-adv-x="444" d="M-72 1634q0 43 25 65.5t70 22.5q94 0 94 -88t-94 -88q-45 0 -70 22.5t-25 65.5zM143 0v1434h158v-1434h-158zM328 1634q0 88 94 88t94 -88t-94 -88t-94 88z" />
<glyph unicode="&#xd0;" horiz-adv-x="1404" d="M63 643v143h154v623q280 49 479 49q109 0 194.5 -18.5t164 -68t129.5 -131.5t81.5 -214t30.5 -309q0 -199 -35 -336.5t-110 -222t-184.5 -121.5t-266.5 -37h-483v643h-154zM375 143h325q119 0 197 25t134 89.5t81 176t25 283.5q0 146 -21 252.5t-56.5 172.5t-91.5 105 t-118 53.5t-145 14.5q-159 0 -330 -29v-500h264v-143h-264v-500z" />
<glyph unicode="&#xd1;" horiz-adv-x="1306" d="M143 0v1411l174 35l703 -1184v1172h143v-1434h-170l-706 1190v-1190h-144zM233 1653q107 137 277 137q43 0 88 -18t77 -39.5t73 -39.5t75 -18q102 0 189 101l80 -93q-107 -137 -277 -137q-43 0 -88 18t-77 39.5t-73 39.5t-75 18q-103 0 -189 -100z" />
<glyph unicode="&#xd2;" d="M113 717q0 385 135.5 563t443.5 178t444 -178.5t136 -562.5q0 -385 -136 -563.5t-444 -178.5t-443.5 178.5t-135.5 563.5zM272 717q0 -100 6.5 -174.5t23 -145.5t46.5 -119.5t76 -86t113 -55t155 -17.5t155 17.5t113 55t76 86t46.5 119.5t23 145.5t6.5 174.5t-6.5 174.5 t-23 145.5t-46.5 119.5t-76 86t-113 55t-155 17.5t-155 -17.5t-113 -55t-76 -86t-46.5 -119.5t-23 -145.5t-6.5 -174.5zM467 1901l164 12l143 -350l-112 -13z" />
<glyph unicode="&#xd3;" d="M113 717q0 385 135.5 563t443.5 178t444 -178.5t136 -562.5q0 -385 -136 -563.5t-444 -178.5t-443.5 178.5t-135.5 563.5zM272 717q0 -100 6.5 -174.5t23 -145.5t46.5 -119.5t76 -86t113 -55t155 -17.5t155 17.5t113 55t76 86t46.5 119.5t23 145.5t6.5 174.5t-6.5 174.5 t-23 145.5t-46.5 119.5t-76 86t-113 55t-155 17.5t-155 -17.5t-113 -55t-76 -86t-46.5 -119.5t-23 -145.5t-6.5 -174.5zM606 1563l146 350l161 -12l-194 -351z" />
<glyph unicode="&#xd4;" d="M113 717q0 385 135.5 563t443.5 178t444 -178.5t136 -562.5q0 -385 -136 -563.5t-444 -178.5t-443.5 178.5t-135.5 563.5zM272 717q0 -100 6.5 -174.5t23 -145.5t46.5 -119.5t76 -86t113 -55t155 -17.5t155 17.5t113 55t76 86t46.5 119.5t23 145.5t6.5 174.5t-6.5 174.5 t-23 145.5t-46.5 119.5t-76 86t-113 55t-155 17.5t-155 -17.5t-113 -55t-76 -86t-46.5 -119.5t-23 -145.5t-6.5 -174.5zM322 1612l313 256h117l313 -256l-82 -70l-291 201l-291 -201z" />
<glyph unicode="&#xd5;" d="M113 717q0 385 135.5 563t443.5 178t444 -178.5t136 -562.5q0 -385 -136 -563.5t-444 -178.5t-443.5 178.5t-135.5 563.5zM264 1653q107 137 277 137q43 0 88 -18t77 -39.5t73 -39.5t75 -18q101 0 188 101l80 -93q-107 -137 -276 -137q-43 0 -88 18t-77.5 39.5 t-73.5 39.5t-75 18q-102 0 -188 -100zM272 717q0 -100 6.5 -174.5t23 -145.5t46.5 -119.5t76 -86t113 -55t155 -17.5t155 17.5t113 55t76 86t46.5 119.5t23 145.5t6.5 174.5t-6.5 174.5t-23 145.5t-46.5 119.5t-76 86t-113 55t-155 17.5t-155 -17.5t-113 -55t-76 -86 t-46.5 -119.5t-23 -145.5t-6.5 -174.5z" />
<glyph unicode="&#xd6;" d="M113 717q0 385 135.5 563t443.5 178t444 -178.5t136 -562.5q0 -385 -136 -563.5t-444 -178.5t-443.5 178.5t-135.5 563.5zM272 717q0 -100 6.5 -174.5t23 -145.5t46.5 -119.5t76 -86t113 -55t155 -17.5t155 17.5t113 55t76 86t46.5 119.5t23 145.5t6.5 174.5t-6.5 174.5 t-23 145.5t-46.5 119.5t-76 86t-113 55t-155 17.5t-155 -17.5t-113 -55t-76 -86t-46.5 -119.5t-23 -145.5t-6.5 -174.5zM399 1638q0 43 25 65.5t70 22.5q94 0 94 -88t-94 -88q-45 0 -70 22.5t-25 65.5zM799 1638q0 88 94 88t94 -88t-94 -88t-94 88z" />
<glyph unicode="&#xd7;" horiz-adv-x="1392" d="M250 934l108 108l338 -340l338 338l107 -106l-338 -338l340 -338l-109 -108l-338 339l-338 -337l-106 106l338 338z" />
<glyph unicode="&#xd8;" d="M113 717q0 385 135.5 563t443.5 178q152 0 262 -43l70 162h168l-109 -242q189 -172 189 -618q0 -385 -136 -563.5t-444 -178.5q-104 0 -198 23l-76 -172h-166l100 231q-124 78 -181.5 241t-57.5 419zM272 717q0 -100 6.5 -174.5t23 -145.5t46.5 -119.5t76 -86t113 -55 t155 -17.5t155 17.5t113 55t76 86t46.5 119.5t23 145.5t6.5 174.5t-6.5 174.5t-23 145.5t-46.5 119.5t-76 86t-113 55t-155 17.5t-155 -17.5t-113 -55t-76 -86t-46.5 -119.5t-23 -145.5t-6.5 -174.5z" />
<glyph unicode="&#xd9;" horiz-adv-x="1343" d="M133 717v717h158v-717q0 -316 84.5 -457t298.5 -141q109 0 182.5 35t117 111.5t61.5 185t18 266.5v717h157v-717q0 -384 -127 -563t-411 -179q-287 0 -413 178.5t-126 563.5zM451 1903l163 12l144 -350l-113 -13z" />
<glyph unicode="&#xda;" horiz-adv-x="1343" d="M133 717v717h158v-717q0 -316 84.5 -457t298.5 -141q109 0 182.5 35t117 111.5t61.5 185t18 266.5v717h157v-717q0 -384 -127 -563t-411 -179q-287 0 -413 178.5t-126 563.5zM588 1565l145 350l162 -12l-195 -351z" />
<glyph unicode="&#xdb;" horiz-adv-x="1343" d="M133 717v717h158v-717q0 -316 84.5 -457t298.5 -141q109 0 182.5 35t117 111.5t61.5 185t18 266.5v717h157v-717q0 -384 -127 -563t-411 -179q-287 0 -413 178.5t-126 563.5zM303 1608l313 256h117l314 -256l-82 -70l-291 201l-291 -201z" />
<glyph unicode="&#xdc;" horiz-adv-x="1343" d="M133 717v717h158v-717q0 -316 84.5 -457t298.5 -141q109 0 182.5 35t117 111.5t61.5 185t18 266.5v717h157v-717q0 -384 -127 -563t-411 -179q-287 0 -413 178.5t-126 563.5zM381 1638q0 88 94 88t94 -88t-94 -88t-94 88zM780 1638q0 88 94 88q45 0 70 -22.5t25 -65.5 t-25 -65.5t-70 -22.5q-94 0 -94 88z" />
<glyph unicode="&#xdd;" horiz-adv-x="1175" d="M47 1413l168 39l369 -772l368 754h176l-466 -906v-528h-158v528zM504 1563l145 350l162 -12l-195 -351z" />
<glyph unicode="&#xde;" horiz-adv-x="1155" d="M143 0v1434h158v-248q158 35 277 35q89 0 165.5 -15.5t146 -52t118.5 -93.5t77.5 -145t28.5 -200q0 -104 -30.5 -186.5t-82.5 -136t-125.5 -88.5t-155.5 -49.5t-177 -14.5q-109 0 -242 20v-260h-158zM301 397q105 -18 217 -18q106 0 182 15t135.5 51.5t89 102.5t29.5 163 q0 106 -28 179.5t-81 113t-117.5 56.5t-149.5 17q-114 0 -277 -37v-643z" />
<glyph unicode="&#xdf;" horiz-adv-x="1222" d="M141 0v915q0 286 108 419.5t353 133.5q124 0 214.5 -34t140.5 -94.5t73 -132t23 -156.5q0 -141 -74.5 -225.5t-202.5 -96.5q183 -6 280 -99.5t97 -271.5q0 -190 -108.5 -286.5t-307.5 -96.5q-205 0 -329 72l51 117q124 -62 248 -62q154 0 221 62t67 203q0 147 -89 216.5 t-265 69.5h-25l-16 121q41 6 67 10.5t61 14.5t57 21.5t46.5 30.5t38 43.5t22.5 59.5t9 78q0 154 -67 230.5t-232 76.5q-77 0 -132.5 -19.5t-89.5 -53t-53.5 -89t-26.5 -116.5t-7 -146v-915h-152z" />
<glyph unicode="&#xe0;" horiz-adv-x="1079" d="M102 287q0 107 62 173t212.5 105.5t409.5 50.5v25q0 305 -266 305q-158 0 -295 -67l-49 122q151 80 344 80q70 0 130.5 -14t114 -46t91.5 -80t60 -120.5t22 -163.5v-274q0 -223 37 -367l-127 -28q-29 81 -43 157q-96 -170 -344 -170q-186 0 -272.5 72t-86.5 240zM252 287 q0 -101 48.5 -144t188.5 -43q109 0 175.5 52.5t121.5 162.5v177q-183 -8 -297 -29.5t-175.5 -64.5t-61.5 -111zM334 1561l164 12l143 -350l-113 -13z" />
<glyph unicode="&#xe1;" horiz-adv-x="1079" d="M102 287q0 107 62 173t212.5 105.5t409.5 50.5v25q0 305 -266 305q-158 0 -295 -67l-49 122q151 80 344 80q70 0 130.5 -14t114 -46t91.5 -80t60 -120.5t22 -163.5v-274q0 -223 37 -367l-127 -28q-29 81 -43 157q-96 -170 -344 -170q-186 0 -272.5 72t-86.5 240zM252 287 q0 -101 48.5 -144t188.5 -43q109 0 175.5 52.5t121.5 162.5v177q-183 -8 -297 -29.5t-175.5 -64.5t-61.5 -111zM444 1223l146 350l162 -12l-195 -351z" />
<glyph unicode="&#xe2;" horiz-adv-x="1079" d="M102 287q0 107 62 173t212.5 105.5t409.5 50.5v25q0 305 -266 305q-158 0 -295 -67l-49 122q151 80 344 80q70 0 130.5 -14t114 -46t91.5 -80t60 -120.5t22 -163.5v-274q0 -223 37 -367l-127 -28q-29 81 -43 157q-96 -170 -344 -170q-186 0 -272.5 72t-86.5 240z M172 1270l313 256h117l313 -256l-81 -70l-291 201l-291 -201zM252 287q0 -101 48.5 -144t188.5 -43q109 0 175.5 52.5t121.5 162.5v177q-183 -8 -297 -29.5t-175.5 -64.5t-61.5 -111z" />
<glyph unicode="&#xe3;" horiz-adv-x="1079" d="M102 287q0 107 62 173t212.5 105.5t409.5 50.5v25q0 305 -266 305q-158 0 -295 -67l-49 122q151 80 344 80q70 0 130.5 -14t114 -46t91.5 -80t60 -120.5t22 -163.5v-274q0 -223 37 -367l-127 -28q-29 81 -43 157q-96 -170 -344 -170q-186 0 -272.5 72t-86.5 240z M113 1313q107 137 276 137q43 0 88 -18t77 -39.5t73 -39.5t75 -18q102 0 189 101l80 -93q-107 -137 -277 -137q-43 0 -88 18t-77 39.5t-73 39.5t-75 18q-102 0 -188 -100zM252 287q0 -101 48.5 -144t188.5 -43q109 0 175.5 52.5t121.5 162.5v177q-183 -8 -297 -29.5 t-175.5 -64.5t-61.5 -111z" />
<glyph unicode="&#xe4;" horiz-adv-x="1079" d="M102 287q0 107 62 173t212.5 105.5t409.5 50.5v25q0 305 -266 305q-158 0 -295 -67l-49 122q151 80 344 80q70 0 130.5 -14t114 -46t91.5 -80t60 -120.5t22 -163.5v-274q0 -223 37 -367l-127 -28q-29 81 -43 157q-96 -170 -344 -170q-186 0 -272.5 72t-86.5 240z M246 1339q0 88 94 88t94 -88t-94 -88t-94 88zM252 287q0 -101 48.5 -144t188.5 -43q109 0 175.5 52.5t121.5 162.5v177q-183 -8 -297 -29.5t-175.5 -64.5t-61.5 -111zM645 1339q0 88 94 88q45 0 70 -22.5t25 -65.5t-25 -65.5t-70 -22.5q-94 0 -94 88z" />
<glyph unicode="&#xe5;" horiz-adv-x="1079" d="M102 287q0 107 62 173t212.5 105.5t409.5 50.5v25q0 305 -266 305q-158 0 -295 -67l-49 122q151 80 344 80q70 0 130.5 -14t114 -46t91.5 -80t60 -120.5t22 -163.5v-274q0 -223 37 -367l-127 -28q-29 81 -43 157q-96 -170 -344 -170q-186 0 -272.5 72t-86.5 240zM252 287 q0 -101 48.5 -144t188.5 -43q109 0 175.5 52.5t121.5 162.5v177q-183 -8 -297 -29.5t-175.5 -64.5t-61.5 -111zM281 1430q0 110 63 168.5t188 58.5t188.5 -58.5t63.5 -168.5t-63.5 -168t-188.5 -58t-188 58t-63 168zM393 1430q0 -136 139 -136q140 0 140 136q0 137 -140 137 q-139 0 -139 -137z" />
<glyph unicode="&#xe6;" horiz-adv-x="1742" d="M102 287q0 107 62 173t212.5 105.5t409.5 50.5v25q0 305 -266 305q-158 0 -295 -67l-49 122q154 80 344 80q139 0 227 -52.5t123 -172.5q19 62 58 108t89.5 70.5t102.5 35.5t107 11q104 0 178.5 -27t130.5 -91.5t83.5 -178.5t27.5 -280v-19l-705 -57q4 -178 80 -251 t225 -73q161 0 299 82l56 -112q-154 -99 -355 -99q-333 0 -397 234q-50 -113 -143.5 -173.5t-245.5 -60.5q-186 0 -272.5 72t-86.5 240zM252 287q0 -101 48.5 -144t188.5 -43q109 0 175.5 52.5t121.5 162.5v177q-183 -8 -297 -29.5t-175.5 -64.5t-61.5 -111zM938 547l559 53 q-3 191 -71 271.5t-199 80.5q-141 0 -215 -89t-74 -294v-22z" />
<glyph unicode="&#xe7;" horiz-adv-x="903" d="M102 528q0 286 109 419.5t340 133.5q167 0 283 -65l-58 -119q-95 49 -225 49q-162 0 -228.5 -91.5t-66.5 -326.5t66.5 -326t228.5 -91q130 0 225 49l58 -119q-112 -63 -269 -66l-12 -55q58 -7 86.5 -40t28.5 -83q0 -77 -50.5 -114t-132.5 -37q-59 0 -135 22l29 99 q46 -19 98 -19q74 0 74 51q0 28 -32.5 45t-94.5 17l25 123q-177 26 -262 158.5t-85 385.5z" />
<glyph unicode="&#xe8;" horiz-adv-x="1058" d="M102 528q0 133 24.5 233t64 160t98.5 97t119.5 50t134.5 13q104 0 178.5 -27t130.5 -91.5t83.5 -178.5t27.5 -280v-19l-705 -57q4 -178 80 -251t225 -73q161 0 299 82l56 -116q-144 -95 -355 -95q-73 0 -131.5 10.5t-111.5 35t-92 66.5t-68 102.5t-43.5 145.5t-14.5 193z M254 547l559 53q-3 191 -71 271.5t-199 80.5q-141 0 -215 -89t-74 -294v-22zM311 1561l164 12l143 -350l-112 -13z" />
<glyph unicode="&#xe9;" horiz-adv-x="1058" d="M102 528q0 133 24.5 233t64 160t98.5 97t119.5 50t134.5 13q104 0 178.5 -27t130.5 -91.5t83.5 -178.5t27.5 -280v-19l-705 -57q4 -178 80 -251t225 -73q161 0 299 82l56 -116q-144 -95 -355 -95q-73 0 -131.5 10.5t-111.5 35t-92 66.5t-68 102.5t-43.5 145.5t-14.5 193z M254 547l559 53q-3 191 -71 271.5t-199 80.5q-141 0 -215 -89t-74 -294v-22zM444 1223l146 350l162 -12l-195 -351z" />
<glyph unicode="&#xea;" horiz-adv-x="1058" d="M102 528q0 133 24.5 233t64 160t98.5 97t119.5 50t134.5 13q104 0 178.5 -27t130.5 -91.5t83.5 -178.5t27.5 -280v-19l-705 -57q4 -178 80 -251t225 -73q161 0 299 82l56 -116q-144 -95 -355 -95q-73 0 -131.5 10.5t-111.5 35t-92 66.5t-68 102.5t-43.5 145.5t-14.5 193z M164 1270l313 256h117l313 -256l-82 -70l-290 201l-291 -201zM254 547l559 53q-3 191 -71 271.5t-199 80.5q-141 0 -215 -89t-74 -294v-22z" />
<glyph unicode="&#xeb;" horiz-adv-x="1058" d="M102 528q0 133 24.5 233t64 160t98.5 97t119.5 50t134.5 13q104 0 178.5 -27t130.5 -91.5t83.5 -178.5t27.5 -280v-19l-705 -57q4 -178 80 -251t225 -73q161 0 299 82l56 -116q-144 -95 -355 -95q-73 0 -131.5 10.5t-111.5 35t-92 66.5t-68 102.5t-43.5 145.5t-14.5 193z M236 1339q0 88 94 88t94 -88t-94 -88t-94 88zM254 547l559 53q-3 191 -71 271.5t-199 80.5q-141 0 -215 -89t-74 -294v-22zM635 1339q0 88 94 88t94 -88t-94 -88t-94 88z" />
<glyph unicode="&#xec;" horiz-adv-x="458" d="M6 1561l164 12l143 -350l-112 -13zM154 365v671l151 21v-701q0 -227 33 -356h-145q-39 121 -39 365z" />
<glyph unicode="&#xed;" horiz-adv-x="458" d="M137 1223l146 350l161 -12l-194 -351zM154 365v671l151 21v-701q0 -227 33 -356h-145q-39 121 -39 365z" />
<glyph unicode="&#xee;" horiz-adv-x="458" d="M-143 1270l313 256h117l313 -256l-82 -70l-291 201l-290 -201zM154 365v671l151 21v-701q0 -227 33 -356h-145q-39 121 -39 365z" />
<glyph unicode="&#xef;" horiz-adv-x="458" d="M-66 1339q0 43 25 65.5t70 22.5q94 0 94 -88t-94 -88q-45 0 -70 22.5t-25 65.5zM154 365v671l151 21v-701q0 -227 33 -356h-145q-39 121 -39 365zM334 1339q0 88 94 88t94 -88t-94 -88t-94 88z" />
<glyph unicode="&#xf0;" horiz-adv-x="1126" d="M102 528q0 287 105.5 417t349.5 130q105 0 185 -35t137 -129q-67 201 -195 299l-70 -94l-116 70l69 94q-74 37 -209 72l50 143q136 -36 245 -100l74 100l117 -70l-82 -110q262 -233 262 -750v-37q0 -286 -108 -419.5t-353 -133.5t-353 133.5t-108 419.5zM256 528 q0 -86 6.5 -146.5t26 -116t53 -89t89 -53t132.5 -19.5t132.5 19.5t89 53t53 89t26 116t6.5 146.5t-6.5 146.5t-26 116t-53 89t-89 53t-132.5 19.5t-132.5 -19.5t-89 -53t-53 -89t-26 -116t-6.5 -146.5z" />
<glyph unicode="&#xf1;" horiz-adv-x="1101" d="M102 1313q107 137 277 137q43 0 88 -18t77 -39.5t73 -39.5t75 -18q102 0 189 101l80 -93q-107 -137 -277 -137q-43 0 -88 18t-77 39.5t-73 39.5t-75 18q-103 0 -189 -100zM104 1040l127 29q28 -80 43 -158q96 170 344 170q89 0 154 -26.5t103.5 -68.5t61.5 -106.5 t30.5 -128t7.5 -145.5v-606h-152v578q0 50 -1 83t-4.5 73t-10 65t-18 53t-29 44.5t-41 31t-56 20.5t-73.5 6q-109 0 -175.5 -52t-121.5 -161v-741h-152v674q0 222 -37 366z" />
<glyph unicode="&#xf2;" horiz-adv-x="1126" d="M102 528q0 286 108 419.5t353 133.5t353 -133.5t108 -419.5t-108 -419.5t-353 -133.5t-353 133.5t-108 419.5zM256 528q0 -86 6.5 -146.5t26 -116t53 -89t89 -53t132.5 -19.5t132.5 19.5t89 53t53 89t26 116t6.5 146.5t-6.5 146.5t-26 116t-53 89t-89 53t-132.5 19.5 t-132.5 -19.5t-89 -53t-53 -89t-26 -116t-6.5 -146.5zM336 1561l164 12l143 -350l-113 -13z" />
<glyph unicode="&#xf3;" horiz-adv-x="1126" d="M102 528q0 286 108 419.5t353 133.5t353 -133.5t108 -419.5t-108 -419.5t-353 -133.5t-353 133.5t-108 419.5zM256 528q0 -86 6.5 -146.5t26 -116t53 -89t89 -53t132.5 -19.5t132.5 19.5t89 53t53 89t26 116t6.5 146.5t-6.5 146.5t-26 116t-53 89t-89 53t-132.5 19.5 t-132.5 -19.5t-89 -53t-53 -89t-26 -116t-6.5 -146.5zM471 1223l145 350l162 -12l-194 -351z" />
<glyph unicode="&#xf4;" horiz-adv-x="1126" d="M102 528q0 286 108 419.5t353 133.5t353 -133.5t108 -419.5t-108 -419.5t-353 -133.5t-353 133.5t-108 419.5zM193 1270l313 256h117l313 -256l-82 -70l-291 201l-291 -201zM256 528q0 -86 6.5 -146.5t26 -116t53 -89t89 -53t132.5 -19.5t132.5 19.5t89 53t53 89t26 116 t6.5 146.5t-6.5 146.5t-26 116t-53 89t-89 53t-132.5 19.5t-132.5 -19.5t-89 -53t-53 -89t-26 -116t-6.5 -146.5z" />
<glyph unicode="&#xf5;" horiz-adv-x="1126" d="M102 528q0 286 108 419.5t353 133.5t353 -133.5t108 -419.5t-108 -419.5t-353 -133.5t-353 133.5t-108 419.5zM135 1313q107 137 277 137q43 0 88 -18t77 -39.5t73 -39.5t75 -18q101 0 188 101l80 -93q-107 -137 -276 -137q-43 0 -88 18t-77.5 39.5t-73.5 39.5t-75 18 q-102 0 -188 -100zM256 528q0 -86 6.5 -146.5t26 -116t53 -89t89 -53t132.5 -19.5t132.5 19.5t89 53t53 89t26 116t6.5 146.5t-6.5 146.5t-26 116t-53 89t-89 53t-132.5 19.5t-132.5 -19.5t-89 -53t-53 -89t-26 -116t-6.5 -146.5z" />
<glyph unicode="&#xf6;" horiz-adv-x="1126" d="M102 528q0 286 108 419.5t353 133.5t353 -133.5t108 -419.5t-108 -419.5t-353 -133.5t-353 133.5t-108 419.5zM256 528q0 -86 6.5 -146.5t26 -116t53 -89t89 -53t132.5 -19.5t132.5 19.5t89 53t53 89t26 116t6.5 146.5t-6.5 146.5t-26 116t-53 89t-89 53t-132.5 19.5 t-132.5 -19.5t-89 -53t-53 -89t-26 -116t-6.5 -146.5zM270 1339q0 43 25 65.5t70 22.5q94 0 94 -88t-94 -88q-45 0 -70 22.5t-25 65.5zM670 1339q0 88 94 88t94 -88t-94 -88t-94 88z" />
<glyph unicode="&#xf7;" horiz-adv-x="1392" d="M205 522v148h983v-148h-983zM592 229q0 107 104 107q105 0 105 -107q0 -106 -105 -106q-104 0 -104 106zM592 963q0 106 104 106q105 0 105 -106q0 -107 -105 -107q-104 0 -104 107z" />
<glyph unicode="&#xf8;" horiz-adv-x="1126" d="M100 528q0 286 108 419.5t353 133.5q101 0 180 -24l68 133h154l-97 -197q156 -123 156 -465q0 -286 -108 -419.5t-353 -133.5q-96 0 -180 23l-66 -135h-153l96 196q-158 125 -158 469zM254 528q0 -86 6.5 -146.5t26 -116t53 -89t89 -53t132.5 -19.5t132.5 19.5t89 53 t53 89t26 116t6.5 146.5t-6.5 146.5t-26 116t-53 89t-89 53t-132.5 19.5t-132.5 -19.5t-89 -53t-53 -89t-26 -116t-6.5 -146.5z" />
<glyph unicode="&#xf9;" horiz-adv-x="1101" d="M127 451v585l152 21v-578q0 -58 1.5 -94.5t6.5 -80.5t14.5 -71t26 -54.5t41.5 -42.5t60.5 -24.5t82.5 -9.5q109 0 175.5 52t121.5 161v721l152 21v-674q0 -227 36 -367l-127 -28q-29 81 -43 157q-96 -170 -344 -170q-89 0 -154 26.5t-103 69t-61 107t-30.5 128 t-7.5 145.5zM322 1561l163 12l144 -350l-113 -13z" />
<glyph unicode="&#xfa;" horiz-adv-x="1101" d="M127 451v585l152 21v-578q0 -58 1.5 -94.5t6.5 -80.5t14.5 -71t26 -54.5t41.5 -42.5t60.5 -24.5t82.5 -9.5q109 0 175.5 52t121.5 161v721l152 21v-674q0 -227 36 -367l-127 -28q-29 81 -43 157q-96 -170 -344 -170q-89 0 -154 26.5t-103 69t-61 107t-30.5 128 t-7.5 145.5zM459 1223l145 350l162 -12l-195 -351z" />
<glyph unicode="&#xfb;" horiz-adv-x="1101" d="M127 451v585l152 21v-578q0 -58 1.5 -94.5t6.5 -80.5t14.5 -71t26 -54.5t41.5 -42.5t60.5 -24.5t82.5 -9.5q109 0 175.5 52t121.5 161v721l152 21v-674q0 -227 36 -367l-127 -28q-29 81 -43 157q-96 -170 -344 -170q-89 0 -154 26.5t-103 69t-61 107t-30.5 128 t-7.5 145.5zM174 1270l313 256h117l314 -256l-82 -70l-291 201l-291 -201z" />
<glyph unicode="&#xfc;" horiz-adv-x="1101" d="M127 451v585l152 21v-578q0 -58 1.5 -94.5t6.5 -80.5t14.5 -71t26 -54.5t41.5 -42.5t60.5 -24.5t82.5 -9.5q109 0 175.5 52t121.5 161v721l152 21v-674q0 -227 36 -367l-127 -28q-29 81 -43 157q-96 -170 -344 -170q-89 0 -154 26.5t-103 69t-61 107t-30.5 128 t-7.5 145.5zM256 1339q0 88 94 88t94 -88t-94 -88t-94 88zM655 1339q0 43 25 65.5t70 22.5q94 0 94 -88t-94 -88q-45 0 -70 22.5t-25 65.5z" />
<glyph unicode="&#xfd;" horiz-adv-x="950" d="M41 1038l162 31l278 -924l281 924l147 -29l-313 -929q-38 -113 -82 -195t-116.5 -153t-168.5 -109l-65 106q106 54 157 113.5t70 144.5zM393 1223l146 350l161 -12l-194 -351z" />
<glyph unicode="&#xfe;" horiz-adv-x="1099" d="M143 -315v1765l152 20v-561q95 172 321 172q197 0 289 -137t92 -416q0 -134 -25 -234.5t-64.5 -160t-97.5 -96t-115.5 -49.5t-127.5 -13q-157 0 -278 62q6 -70 6 -213v-139h-152zM295 166q114 -64 258 -64q58 0 100.5 11t80 39.5t61 76t36.5 122.5t13 177 q0 83 -6.5 145.5t-23 117.5t-44.5 89.5t-72.5 54t-105.5 19.5q-109 0 -175.5 -52t-121.5 -161v-575z" />
<glyph unicode="&#xff;" horiz-adv-x="950" d="M41 1038l162 31l278 -924l281 924l147 -29l-313 -929q-38 -113 -82 -195t-116.5 -153t-168.5 -109l-65 106q106 54 157 113.5t70 144.5zM188 1339q0 43 25 65.5t70 22.5q94 0 94 -88t-94 -88q-45 0 -70 22.5t-25 65.5zM588 1339q0 88 94 88t94 -88t-94 -88t-94 88z" />
<glyph unicode="&#x152;" horiz-adv-x="2050" d="M113 717q0 385 135 563t442 178q188 0 301.5 -75.5t149.5 -202.5v254h796v-144h-669v-454h549l-15 -144h-534v-549h669v-143h-796v254q-36 -127 -149.5 -203t-301.5 -76q-307 0 -442 178.5t-135 563.5zM270 717q0 -100 6.5 -174.5t23 -145.5t46.5 -119.5t76 -86t113 -55 t155 -17.5t155 17.5t113 55t76 86t46.5 119.5t23 145.5t6.5 174.5t-6.5 174.5t-23 145.5t-46.5 119.5t-76 86t-113 55t-155 17.5t-155 -17.5t-113 -55t-76 -86t-46.5 -119.5t-23 -145.5t-6.5 -174.5z" />
<glyph unicode="&#x153;" horiz-adv-x="1826" d="M102 528q0 286 108 419.5t353 133.5q310 0 383 -237q73 237 365 237q104 0 178.5 -27t130.5 -91.5t83.5 -178.5t27.5 -280v-19l-705 -57q4 -178 80 -251t225 -73q161 0 299 82l56 -112q-154 -99 -355 -99q-161 0 -256 53.5t-129 184.5q-73 -238 -383 -238 q-245 0 -353 133.5t-108 419.5zM256 528q0 -86 6.5 -146.5t26 -116t53 -89t89 -53t132.5 -19.5t132.5 19.5t89 53t53 89t26 116t6.5 146.5t-6.5 146.5t-26 116t-53 89t-89 53t-132.5 19.5t-132.5 -19.5t-89 -53t-53 -89t-26 -116t-6.5 -146.5zM1022 547l559 53 q-3 191 -71 271.5t-199 80.5q-141 0 -215 -89t-74 -294v-22z" />
<glyph unicode="&#x178;" horiz-adv-x="1175" d="M47 1413l168 39l369 -772l368 754h176l-466 -906v-528h-158v528zM291 1692q0 88 94 88t94 -88t-94 -88t-94 88zM690 1692q0 88 94 88q45 0 70 -22.5t25 -65.5t-25 -65.5t-70 -22.5q-94 0 -94 88z" />
<glyph unicode="&#x2c6;" horiz-adv-x="907" d="M82 1270l313 256h117l313 -256l-82 -70l-290 201l-291 -201z" />
<glyph unicode="&#x2dc;" horiz-adv-x="1021" d="M82 1313q107 137 276 137q43 0 88 -18t77.5 -39.5t73.5 -39.5t75 -18q101 0 188 101l80 -93q-107 -137 -276 -137q-43 0 -88 18t-77.5 39.5t-73.5 39.5t-75 18q-102 0 -188 -100z" />
<glyph unicode="&#x2000;" horiz-adv-x="957" />
<glyph unicode="&#x2001;" horiz-adv-x="1915" />
<glyph unicode="&#x2002;" horiz-adv-x="957" />
<glyph unicode="&#x2003;" horiz-adv-x="1915" />
<glyph unicode="&#x2004;" horiz-adv-x="638" />
<glyph unicode="&#x2005;" horiz-adv-x="478" />
<glyph unicode="&#x2006;" horiz-adv-x="319" />
<glyph unicode="&#x2007;" horiz-adv-x="319" />
<glyph unicode="&#x2008;" horiz-adv-x="239" />
<glyph unicode="&#x2009;" horiz-adv-x="383" />
<glyph unicode="&#x200a;" horiz-adv-x="106" />
<glyph unicode="&#x2010;" horiz-adv-x="907" d="M135 522v148h637v-148h-637z" />
<glyph unicode="&#x2011;" horiz-adv-x="907" d="M135 522v148h637v-148h-637z" />
<glyph unicode="&#x2012;" horiz-adv-x="907" d="M135 522v148h637v-148h-637z" />
<glyph unicode="&#x2013;" horiz-adv-x="1179" d="M135 522v148h912v-148h-912z" />
<glyph unicode="&#x2014;" horiz-adv-x="1441" d="M135 522v148h1172v-148h-1172z" />
<glyph unicode="&#x2018;" horiz-adv-x="454" d="M74 803l192 667h115l-137 -657z" />
<glyph unicode="&#x2019;" horiz-adv-x="454" d="M74 809l137 657l170 11l-193 -668h-114z" />
<glyph unicode="&#x201a;" horiz-adv-x="454" d="M74 -287l137 658l170 10l-193 -668h-114z" />
<glyph unicode="&#x201c;" horiz-adv-x="761" d="M74 803l192 667h115l-137 -657zM381 803l192 667h115l-137 -657z" />
<glyph unicode="&#x201d;" horiz-adv-x="761" d="M74 809l137 657l170 11l-193 -668h-114zM381 809l137 657l170 11l-192 -668h-115z" />
<glyph unicode="&#x201e;" horiz-adv-x="761" d="M74 -287l137 658l170 10l-193 -668h-114zM381 -287l137 658l170 10l-192 -668h-115z" />
<glyph unicode="&#x2022;" horiz-adv-x="581" d="M109 664q0 180 182 180t182 -180q0 -181 -182 -181t-182 181z" />
<glyph unicode="&#x2026;" horiz-adv-x="1198" d="M125 94q0 107 104 107q105 0 105 -107q0 -106 -105 -106q-104 0 -104 106zM494 94q0 107 104 107t104 -107q0 -106 -104 -106t-104 106zM864 94q0 107 105 107q104 0 104 -107q0 -106 -104 -106q-105 0 -105 106z" />
<glyph unicode="&#x202f;" horiz-adv-x="383" />
<glyph unicode="&#x2039;" horiz-adv-x="806" d="M113 518v127l514 373l69 -125l-458 -311l458 -314l-69 -123z" />
<glyph unicode="&#x203a;" horiz-adv-x="806" d="M111 268l458 314l-458 311l69 125l514 -373v-127l-514 -373z" />
<glyph unicode="&#x205f;" horiz-adv-x="478" />
<glyph unicode="&#x20ac;" horiz-adv-x="1177" d="M84 522v115h135v80q0 14 1 40.5t1 33.5h-137v114h143q10 97 30.5 176t59.5 151t95 120.5t139 77t188 28.5q211 0 338 -74l-63 -129q-112 62 -250 62q-179 0 -269 -94.5t-108 -317.5h444v-114h-450q-2 -14 -2 -78q0 -66 2 -76h450v-115h-442q10 -208 100.5 -306.5 t266.5 -98.5q147 0 258 61l63 -129q-127 -74 -338 -74q-234 0 -358 136.5t-154 410.5h-143z" />
<glyph unicode="&#x2122;" horiz-adv-x="1347" d="M92 1350v84h479v-84h-194v-533h-88v533h-197zM608 817l49 617h101l160 -490l143 490h108l50 -615l-91 -8l-30 471l-140 -465h-81l-156 465l-21 -465h-92z" />
<glyph unicode="&#x25fc;" horiz-adv-x="1075" d="M0 0v1075h1075v-1075h-1075z" />
</font>
</defs>
</svg>
